HIERARCHY
ROOT pelvis
{
  OFFSET 0 100 0
  CHANNELS 6 Xposition Yposition Zposition Zrotation Xrotation Yrotation
  JOINT pelvis_right_femur
  {
    OFFSET -10.78128 -3.44521 -0.5502486
    CHANNELS 3 Zrotation Xrotation Yrotation
    JOINT right_femur_tibia
    {
      OFFSET -0.8047443 -44.0398 -0.1307829
      CHANNELS 3 Zrotation Xrotation Yrotation
      JOINT right_tibia_foot
      {
        OFFSET 3.006224 -47.83518 -5
        CHANNELS 3 Zrotation Xrotation Yrotation
        End Site
        {
          OFFSET 0 -5 15
        }
      }
    }
  }
  JOINT pelvis_left_femur
  {
    OFFSET 10.78128 -3.44521 -0.5502486
    CHANNELS 3 Zrotation Xrotation Yrotation
    JOINT left_femur_tibia
    {
      OFFSET 0.8047443 -44.0398 -0.1307829
      CHANNELS 3 Zrotation Xrotation Yrotation
      JOINT left_tibia_foot
      {
        OFFSET -4.370144 -48.10324 -4.275266
        CHANNELS 3 Zrotation Xrotation Yrotation
        End Site
        {
          OFFSET 0 -5 15
        }
      }
    }
  }
  JOINT pelvis_spine1
  {
    OFFSET 0 6.468898 -3.129235
    CHANNELS 3 Zrotation Xrotation Yrotation
    JOINT spine1
    {
      OFFSET 0 23.15396 4.99043
      CHANNELS 3 Zrotation Xrotation Yrotation
      JOINT spine2
      {
        OFFSET 0 20.79997 -5.064912
        CHANNELS 3 Zrotation Xrotation Yrotation
        JOINT neck
        {
          OFFSET 0 14.38658 9.616178
          CHANNELS 3 Zrotation Xrotation Yrotation
          End Site
          {
            OFFSET 0 20 0
          }
        }
      }
      JOINT right_manubrium
      {
        OFFSET -5.722621 16.35077 3.967754
        CHANNELS 3 Zrotation Xrotation Yrotation
        JOINT right_clavicle
        {
          OFFSET -13.16364 1.694482 -4.693211
          CHANNELS 3 Zrotation Xrotation Yrotation
          JOINT right_humerus
          {
            OFFSET -28.5034 -0.3100689 -2.792744
            CHANNELS 3 Zrotation Xrotation Yrotation
            JOINT right_radius
            {
              OFFSET -25.15693 0.02248979 -1.271978
              CHANNELS 3 Zrotation Xrotation Yrotation
              End Site
              {
                OFFSET -15 0 0
              }
            }
          }
        }
      }
      JOINT left_manubrium
      {
        OFFSET 5.722621 16.35077 3.967754
        CHANNELS 3 Zrotation Xrotation Yrotation
        JOINT left_clavicle
        {
          OFFSET 13.16364 1.694482 -4.693211
          CHANNELS 3 Zrotation Xrotation Yrotation
          JOINT left_humerus
          {
            OFFSET 29.39168 -1.063119 -2.237045
            CHANNELS 3 Zrotation Xrotation Yrotation
            JOINT left_radius
            {
              OFFSET 24.59957 -0.9528479 0.9047498
              CHANNELS 3 Zrotation Xrotation Yrotation
              End Site
              {
                OFFSET 15 -0 -0
              }
            }
          }
        }
      }
    }
  }
}
MOTION
Frames: 11
Frame Time: 0.0416666666667
757.3351 96.50398 3079.725 1.878006 -5.525365 24.54582 6.483465 -14.6341 6.431922 -0 17.42771 -0 -1.827016 -5.430743 -8.304555 -3.107025 10.75327 -7.508927 -0 54.60408 -0 -7.890052 -6.737752 14.02804 -0.3908988 0.09650827 3.578086 2.443288 10.42848 -7.725155 1.968218 21.82709 5.366089 2.290248 -18.19585 7.004813 4.258459 -13.49626 11.35472 89.48864 27.77392 -22.10025 -0 0 6.557212 -16.53264 13.2665 8.11541 4.224756 -20.78302 -3.974662 -84.27758 23.15548 8.361372 0 0 -22.89866 2.502321 6.354003 10.99185
759.6849 97.74971 3085.828 2.380966 -6.121002 23.58866 6.230272 -9.587375 6.692423 -0 17.37671 -0 -1.835065 -6.182466 -7.38378 -2.822833 4.517815 -7.101353 -0 60.16104 -0 -8.272219 -5.477095 15.12617 -0.4586365 0.633795 4.724911 2.012124 10.75508 -6.838725 2.14148 22.18999 5.381599 2.569208 -17.82697 6.966074 4.539953 -14.12086 11.63102 87.95119 28.34363 -20.14487 -0 0 8.115301 -17.63774 13.58479 8.569567 3.85832 -20.21945 -3.882019 -85.85268 23.61027 10.67762 0 0 -21.11904 1.591481 6.438256 12.12983
761.9346 98.77689 3091.612 3.016171 -6.585861 22.60624 5.600525 -4.054929 6.573622 -0 16.36263 -0 -1.577613 -7.295653 -6.473675 -2.374559 -2.628414 -6.283787 -0 60.85255 -0 -8.200894 -5.322282 16.35585 -0.731709 1.153206 5.89884 1.461161 10.95018 -5.87334 2.284591 22.50725 5.285428 2.699916 -17.42904 6.843499 4.37335 -15.20597 11.86735 86.13645 28.22233 -17.45915 -0 0 10.4404 -19.20219 13.54822 9.436311 3.704375 -19.58605 -3.804922 -87.36943 23.82266 13.09777 0 0 -19.46628 0.6097796 6.392545 13.24607
764.1653 99.28296 3097.162 3.579554 -6.969309 21.67502 4.865979 1.569687 6.218476 -0 14.89619 -0 -0.967451 -8.991611 -5.640076 -1.605407 -9.680401 -5.150874 -0 56.43995 -0 -7.833576 -5.907699 17.57287 -0.9942998 1.546489 6.899503 0.8678003 10.94801 -4.922303 2.376831 22.72786 5.089392 2.602441 -17.01093 6.699362 3.719997 -16.67468 11.99223 84.32973 27.16727 -14.31422 -0 0 13.40085 -20.95749 13.12528 10.58386 3.742996 -18.81023 -3.715481 -88.74557 23.7844 15.51767 0 0 -17.91062 -0.3698873 6.15652 14.2668
766.4881 99.10229 3102.624 3.922922 -7.325228 20.82 4.226998 6.925714 5.817816 -0 13.67221 -0 -0.003879604 -11.27994 -4.917122 -0.5294958 -15.78777 -3.920863 -0 48.03425 -0 -7.38072 -6.78501 18.67877 -1.075534 1.76868 7.617535 0.2976989 10.72531 -4.043704 2.442744 22.83311 4.817336 2.275169 -16.57376 6.611987 2.644243 -18.3556 11.92935 82.81704 25.14818 -11.05722 -0 0 16.80466 -22.5659 12.32022 11.78354 3.906256 -17.80614 -3.593917 -90.02374 23.58123 17.91821 0 0 -16.21522 -1.308807 5.70217 15.18351
769.0015 98.27054 3108.158 3.963947 -7.631661 20.0272 3.766503 11.59957 5.56382 -0 13.42792 -0 1.206987 -13.76402 -4.305787 0.6127314 -20.38936 -2.932807 -0 37.94032 -0 -7.023017 -7.535052 19.5683 -0.9116494 1.81414 8.05479 -0.2009075 10.3384 -3.291248 2.515349 22.80333 4.536239 1.810104 -16.20367 6.654108 1.348681 -20.00856 11.659 81.81221 22.54692 -8.10034 -0 0 20.31695 -23.75208 11.28364 12.80673 4.092093 -16.578 -3.435104 -91.28928 23.33705 20.33947 0 0 -14.1966 -2.160191 5.05872 16.04336
771.7509 97.03923 3113.891 3.744431 -7.805059 19.28788 3.41166 15.139 5.584576 -0 14.87336 -0 2.451979 -15.64477 -3.831151 1.398279 -23.22722 -2.558102 -0 29.10448 -0 -6.844025 -7.920139 20.12429 -0.6064653 1.691948 8.300678 -0.6168272 9.91196 -2.717499 2.621963 22.64071 4.341816 1.365955 -16.03208 6.869337 0.17284 -21.33635 11.25007 81.35245 20.17884 -5.849261 -0 0 23.39657 -24.4374 10.38925 13.48617 4.185904 -15.2906 -3.252943 -92.53624 23.19151 22.73619 0 0 -11.95582 -2.85088 4.41809 16.89345
774.7175 95.80459 3119.858 3.45523 -7.754846 18.64996 2.964197 17.17994 5.865671 -0 18.53478 -0 3.482493 -16.00864 -3.58442 1.424422 -24.30657 -2.983966 -0 23.8552 -0 -6.770061 -8.006908 20.27561 -0.4255752 1.411936 8.465112 -0.9712829 9.583337 -2.36626 2.762454 22.39397 4.319514 1.110838 -16.12602 7.232901 -0.4749969 -22.05917 10.84986 81.25401 19.01517 -4.588712 -0 0 25.405 -24.80169 10.12901 13.78127 4.104998 -14.2389 -3.077559 -93.58544 23.25162 24.86065 0 0 -9.914975 -3.308943 4.12301 17.70724
777.8435 94.95008 3125.997 3.341612 -7.466896 18.22592 2.26211 17.60459 6.226537 -0 24.48032 -0 4.169926 -14.36725 -3.669348 0.5738303 -23.80146 -4.049218 -0 22.57069 -0 -6.611074 -8.107396 20.06501 -0.6328223 1.005286 8.58319 -1.280125 9.429765 -2.254724 2.891112 22.14902 4.503606 1.130827 -16.41036 7.64953 -0.3277947 -22.05261 10.59986 81.27688 19.58439 -4.355456 -0 0 25.93534 -25.1448 10.7747 13.81147 3.853085 -13.66814 -2.943874 -94.15848 23.51323 26.31434 0 0 -8.541777 -3.507699 4.414073 18.35212
781.0649 94.68713 3132.19 3.523256 -7.08588 18.13882 1.375222 16.58593 6.443911 -0 32.10456 -0 4.586267 -11.08773 -4.117069 -0.8824465 -21.94718 -5.34426 -0 23.64481 -0 -6.237787 -8.511058 19.63962 -1.240296 0.5736583 8.567177 -1.522167 9.441695 -2.353546 2.947208 21.98874 4.839934 1.342242 -16.7122 8.02136 0.4717073 -21.44948 10.52513 81.40985 21.42593 -4.908552 -0 0 25.12611 -25.57267 12.04225 13.7663 3.523812 -13.5728 -2.882824 -94.0865 23.84236 26.78803 0 0 -7.972249 -3.473817 5.125152 18.67852
784.3209 95.00676 3138.327 3.91759 -6.872396 18.45684 0.5837296 14.4325 6.420379 -0 40.19767 -0 4.844765 -7.239202 -4.880815 -2.454682 -18.98164 -6.483154 -0 24.99999 -0 -5.713985 -9.265942 19.14176 -1.967743 0.2796086 8.277634 -1.655567 9.558167 -2.599428 2.91881 21.96517 5.188106 1.527544 -16.88043 8.312527 1.398725 -20.56042 10.53098 81.88706 23.32526 -5.909068 -0 0 23.54478 -25.86188 13.22671 13.72052 3.229743 -13.74148 -2.921093 -93.41831 24.0948 26.23274 0 0 -8.010433 -3.25342 5.78603 18.65027
